<svg xmlns="http://www.w3.org/2000/svg" viewBox="0 0 462.03 190.35"><defs><style>.cls-1{fill:#daede2;}.cls-2{fill:#ea2e49;}</style></defs><title>tapioka logo</title><g id="Layer_2" data-name="Layer 2"><path class="cls-1" d="M155.24,427.28c-.65-.46-1.28-1-1.9-1.47a29,29,0,0,1-3.23-3.23,29.34,29.34,0,0,1-4.54-7.41c-3.09-7.19-3.77-15.75-4-23.5-.23-6.2.81-12.45.18-18.62a25.73,25.73,0,0,0-3.82-11.57c-2.12-3.24-5.75-5.29-9.31-6.64a21.89,21.89,0,0,0-8.79-1.22,22.86,22.86,0,0,0-11.87,3.69l-.21.14c-7.5,5.05-10.34,14.16-12.85,22.4A89,89,0,0,0,92,391.47a15.28,15.28,0,0,1,2-3.05c1.67-2.61,3.41-5.18,5.26-7.67,3.92-5.33,8.83-12.1,15.3-14.42a13.22,13.22,0,0,1,12,1.65c3.93,2.9,4.3,8,3.95,12.55-.43,5.37-1.65,11.17.55,16.33a17.23,17.23,0,0,0,3.13,4.82c-1.81-1.9-20.56-20.91-34-9.18-14.17,12.33-5.34,32.5,9,34.83s25.16-11,25.16-11c1,12,23,12.34,23,12.34C156.79,428.66,155.68,427.6,155.24,427.28Zm-28.68-16.84c-.62,4.59-6.53,7.59-13.22,6.69A14.87,14.87,0,0,1,104.5,413c-3.51-3.72-2.55-10,1.57-12.9,2.07-1.45,4.63-1.45,7.05-1.17a18.39,18.39,0,0,1,7.63,2.25C123.76,403,127.07,406.64,126.56,410.44Z" transform="translate(-27.68 -301.65)"/><path class="cls-1" d="M487.62,426.19c-.66-.51-1.31-1-1.93-1.6a28.36,28.36,0,0,1-3.25-3.42,28.71,28.71,0,0,1-4.34-7.69c-2.79-7.37-2.87-16-2.59-23.71.22-6.21,1.83-12.38,1.61-18.57a24.27,24.27,0,0,0-3.24-11.8c-2.05-3.37-5.8-5.66-9.55-7.23a25.46,25.46,0,0,0-9.4-1.79,26.41,26.41,0,0,0-13.1,2.93l-.23.12C433.11,358,429.36,366.9,426,375a86.39,86.39,0,0,0-4,11.61c.25-1,1.77-2.31,2.4-3.1q3-3.76,6.26-7.33c4.65-5.06,10.46-11.49,17.61-13.4a15.26,15.26,0,0,1,12.84,2.42c4,3.15,4,8.29,3.31,12.78-.86,5.34-2.62,11.05-.64,16.33a16.78,16.78,0,0,0,3,5c-1.86-2.06-20.62-22.16-36-11.35-16.23,11.4-8.23,32.1,7.07,35.35s28-9.36,28-9.36c.16,11.67,22.44,13.68,23.83,13.79A8.45,8.45,0,0,1,487.62,426.19Zm-29.69-18.66c-1,4.54-7.62,7.15-14.77,5.83a16.47,16.47,0,0,1-9.23-4.73c-3.51-3.93-2-10.18,2.67-12.78,2.35-1.3,5.11-1.14,7.7-.7a20.78,20.78,0,0,1,8.07,2.73C455.48,399.91,458.77,403.77,457.93,407.53Z" transform="translate(-27.68 -301.65)"/><path class="cls-1" d="M128.5,336.67s35.83,29.16,38.33,72.25c0,0,6.64,1.67,12.67-1.25.19-.1.3-1.18.33-1.36a41.15,41.15,0,0,0-.3-14.8q-.5-2.85-1.19-5.66a103.8,103.8,0,0,0-4.49-13.76c-1.77-4.41-3.79-8.71-6-12.93-2.81-5.42-5.7-11.12-9.44-16s-9.09-7.32-15.06-8a38.48,38.48,0,0,0-14.32,1.26Z" transform="translate(-27.68 -301.65)"/><path class="cls-1" d="M128.5,492s27.17-.17,42.17-37.17c5.16-16.5,7-22.16,7-22.16l-14.5-4C162.33,435.5,148,471.33,128.5,492Z" transform="translate(-27.68 -301.65)"/><path class="cls-1" d="M153.08,416s.46.42,1.33,1.11c12,9.5,27.3,14,42.42,11.12A57.53,57.53,0,0,0,232,405.81c6.84-9.33,11.32-21.08,7.79-32.64-4.41-14.47-16.9-25.87-31.12-30.43a67,67,0,0,0-7-1.81q-3.56-.71-7.17-1.06c-2.4-.23-4.82-.35-7.24-.36s-4.84.08-7.25.28-4.76.51-7.14.85c-1.14.16-2.25.41-3.37.65-.76.16-2.22.62-2.22.62s-.84.25-2.12.72l-.34.08s1.1,1.4,1.6,2.13,1.44,2.24,1.44,2.24l1.39,2.23c.14.23.28.47.4.71l1.18,2.38.58,1.17s.28.75.62.94.46,0,.69,0l.84,0c1.57,0,3.13.12,4.7.15,10.69.24,22,1.65,31.93,6.23,5.38,2.48,10.79,8.89,13.3,14,3.21,6.51.89,13.56-2.78,19.36a31.93,31.93,0,0,1-11.67,11c-5.53,3-11.64,4.34-17.73,5.71a255,255,0,0,1-26.62,4.37c-2.61.3-5.23.49-7.85.61C155.6,416,154.34,416,153.08,416Z" transform="translate(-27.68 -301.65)"/><path class="cls-1" d="M188.53,459c12.49-1.27,24.84-3.82,35.95-9A74,74,0,0,0,251,429.27a139.55,139.55,0,0,0,9.49-13.66,86.53,86.53,0,0,0,7.8-15.15,82.13,82.13,0,0,0,5.67-25.06,27.18,27.18,0,0,0-1.28-11c-1.26-3.89-9.41-16.41-12-19.75,0,0-17.9-1-26.32-4.11,1.37,1.64,2.78,3.17,4,4.91,5.37,7.53,12.49,15.29,14.6,24.59a28.74,28.74,0,0,1,.33,9.21,58.31,58.31,0,0,1-4.82,17.08c-.53,1.22-1.08,2.42-1.66,3.62-6.54,13.64-16.74,25.46-27.93,36.46-4.54,4.47-9.4,8.76-14.41,12.83a62.45,62.45,0,0,1-7.35,5.11C194.38,456,188.53,459,188.53,459Z" transform="translate(-27.68 -301.65)"/><path class="cls-1" d="M329.7,344c-17.69-5.89-38.3,8.16-46,31.39s.33,46.84,18,52.73,38.3-8.16,46-31.39S347.38,349.88,329.7,344Zm2.15,44.46c-4.56,13.68-14.59,22.65-22.42,20.05S299,392.69,303.52,379s14.59-22.65,22.42-20.05S336.41,374.77,331.85,388.45Z" transform="translate(-27.68 -301.65)"/><path class="cls-2" d="M100.45,435.14c-.29-.1-2,1.06-2.39,1.23a24.18,24.18,0,0,1-2.77,1,25.41,25.41,0,0,1-5.8,1,13.79,13.79,0,0,1-9.94-3c-5.66-4.21-9.49-10.61-11.48-17.3-2.59-8.7-2.41-18-1.88-27,.81-14,3.64-29.93,15.66-37.1a45.58,45.58,0,0,1-43.44-.72c-5.59-3.24-10.87-8.57-10.73-15,.19-8.35,6.5-15.68,13.09-20.12,14.7-9.91,33.45-12.38,50.64-14.4,5-.59,9.92-1,14.89-1.31a399.9,399.9,0,0,1,98.17,6.09c38.16,7.11,77.27,19.61,116.21,10.17q4-1,7.92-2.26a35.67,35.67,0,0,0,6.87,12.42c-38.22,16-86.54,6.84-127.34-.34s-77.08-12.14-118.28-7.77c-10.11,1.07-20.28,3.07-29.28,7.77-3.85,2-8,5.64-7,9.88,1.22,5.43,8.32,6.05,12.78,6.13A46,46,0,0,0,82,342.06a117,117,0,0,1,16-4,62.19,62.19,0,0,1,14.85-1.22c3.48.18,7.81.36,10.61,2.69,1.62,1.35,2.12,4.24.19,5.58a5.74,5.74,0,0,1-3,.72c-10,.61-20.11,3.05-27,10.94-5.92,6.78-8.37,15.71-10.28,24.3-2.16,9.69-4.25,19.06-2.42,29.07C83,421.05,89.94,431.61,100.45,435.14Z" transform="translate(-27.68 -301.65)"/><path class="cls-2" d="M329.74,308.67c1.41.12,9.89,13.1,12,16.14,22.32,31.73,23.7,75.7-6.37,103.38,38.71,5.74,46.1-47.82,39-74.41-4.88-18.37-16.43-36.85-35.27-43.17A41,41,0,0,0,329.74,308.67Z" transform="translate(-27.68 -301.65)"/><path class="cls-2" d="M374.17,431a19.83,19.83,0,0,1,2.59.89,31.87,31.87,0,0,0,6.79,1.18,25.62,25.62,0,0,0,18.94-6.45c13.44-12.19,12.75-32.64,6.75-48.36-1.76-4.59-8.86-17.57-8.86-17.57A75.79,75.79,0,0,1,389,372s2.52,2.45,2.69,2.65a35,35,0,0,1,1.79,44.47,39.93,39.93,0,0,1-5,5.43c-3.66,3.31-8.68,6.53-13.83,6.44A4.35,4.35,0,0,1,374.17,431Z" transform="translate(-27.68 -301.65)"/><path class="cls-2" d="M380.33,373.83s.17-1,.19-1.23a31.1,31.1,0,0,0,.17-4c-.06-6.16-2.52-18.29-2.52-18.29a9.12,9.12,0,0,1,1.37-1.1l1.41-1.15c.93-.78,1.84-1.58,2.72-2.41a40.77,40.77,0,0,0,8.09-10.5c.92-1.73,2.22-4.39,1.93-6.4,0,0,12-.39,15.81,2.73Z" transform="translate(-27.68 -301.65)"/><path class="cls-2" d="M355,310.33s7.33,4.17,11,11.5c0,0,81.17-2.5,117,31.34,0,0-14.67-32-61.33-45S355,310.33,355,310.33Z" transform="translate(-27.68 -301.65)"/></g></svg>