<?xml version="1.0" encoding="utf-8"?>
<!-- Generator: Adobe Illustrator 22.1.0, SVG Export Plug-In . SVG Version: 6.00 Build 0)  -->
<svg version="1.1" id="Layer_1" xmlns="http://www.w3.org/2000/svg" xmlns:xlink="http://www.w3.org/1999/xlink" x="0px" y="0px"
	 viewBox="0 0 462 190.4" style="enable-background:new 0 0 462 190.4;" xml:space="preserve">
<style type="text/css">
	.st0{fill:#77C4D3;}
	.st1{fill:#EA2E49;}
</style>
<title>tapioka logo</title>
<path class="st0" d="M127.6,125.6c-0.6-0.5-1.3-1-1.9-1.5c-1.2-1-2.2-2.1-3.2-3.2c-1.9-2.2-3.4-4.7-4.5-7.4
	c-3.1-7.2-3.8-15.8-4-23.5c-0.2-6.2,0.8-12.5,0.2-18.6c-0.3-4.1-1.6-8.1-3.8-11.6c-2.1-3.2-5.8-5.3-9.3-6.6c-2.8-1-5.8-1.4-8.8-1.2
	c-4.2,0.1-8.3,1.4-11.9,3.7l-0.2,0.1c-7.5,5-10.3,14.2-12.8,22.4C66,82,65,85.9,64.3,89.8c0.5-1.1,1.2-2.1,2-3
	c1.7-2.6,3.4-5.2,5.3-7.7c3.9-5.3,8.8-12.1,15.3-14.4c4-1.4,8.5-0.8,12,1.6c3.9,2.9,4.3,8,4,12.5c-0.4,5.4-1.6,11.2,0.6,16.3
	c0.8,1.8,1.8,3.4,3.1,4.8c-1.8-1.9-20.6-20.9-34-9.2c-14.2,12.3-5.3,32.5,9,34.8c14.3,2.3,25.2-11,25.2-11c1,12,23,12.3,23,12.3
	C129.1,127,128,126,127.6,125.6z M98.9,108.8c-0.6,4.6-6.5,7.6-13.2,6.7c-3.3-0.3-6.4-1.8-8.8-4.1c-3.5-3.7-2.6-10,1.6-12.9
	c2.1-1.5,4.6-1.5,7.1-1.2c2.7,0.2,5.3,1,7.6,2.2C96.1,101.3,99.4,105,98.9,108.8z"/>
<path class="st0" d="M459.9,124.5c-0.7-0.5-1.3-1-1.9-1.6c-1.2-1-2.3-2.2-3.2-3.4c-1.8-2.3-3.3-4.9-4.3-7.7
	c-2.8-7.4-2.9-16-2.6-23.7c0.2-6.2,1.8-12.4,1.6-18.6c-0.1-4.1-1.2-8.2-3.2-11.8c-2-3.4-5.8-5.7-9.5-7.2c-3-1.2-6.2-1.8-9.4-1.8
	c-4.5-0.2-9.1,0.8-13.1,2.9l-0.2,0.1c-8.5,4.6-12.2,13.5-15.6,21.6c-1.6,3.8-2.9,7.6-4,11.6c0.2-1,1.8-2.3,2.4-3.1
	c2-2.5,4.1-5,6.3-7.3c4.6-5.1,10.5-11.5,17.6-13.4c4.4-1.2,9.1-0.3,12.8,2.4c4,3.1,4,8.3,3.3,12.8c-0.9,5.3-2.6,11-0.6,16.3
	c0.7,1.8,1.7,3.5,3,5c-1.9-2.1-20.6-22.2-36-11.4c-16.2,11.4-8.2,32.1,7.1,35.4s28-9.4,28-9.4c0.2,11.7,22.4,13.7,23.8,13.8
	C461.2,125.7,460.5,125.2,459.9,124.5z M430.2,105.9c-1,4.5-7.6,7.1-14.8,5.8c-3.5-0.5-6.7-2.2-9.2-4.7c-3.5-3.9-2-10.2,2.7-12.8
	c2.4-1.3,5.1-1.1,7.7-0.7c2.8,0.3,5.6,1.3,8.1,2.7C427.8,98.3,431.1,102.1,430.2,105.9z"/>
<path class="st0" d="M100.8,35c0,0,35.8,29.2,38.3,72.2c0,0,6.6,1.7,12.7-1.2c0.2-0.1,0.3-1.2,0.3-1.4c0.8-4.9,0.7-9.9-0.3-14.8
	c-0.3-1.9-0.7-3.8-1.2-5.7c-1.2-4.7-2.7-9.3-4.5-13.8c-1.8-4.4-3.8-8.7-6-12.9c-2.8-5.4-5.7-11.1-9.4-16c-3.7-4.9-9.1-7.3-15.1-8
	c-4.8-0.5-9.7-0.1-14.3,1.3L100.8,35z"/>
<path class="st0" d="M100.8,190.4c0,0,27.2-0.2,42.2-37.2c5.2-16.5,7-22.2,7-22.2l-14.5-4C134.6,133.9,120.3,169.7,100.8,190.4z"/>
<path class="st0" d="M125.4,114.3c0,0,0.5,0.4,1.3,1.1c12,9.5,27.3,14,42.4,11.1c14.1-2.8,26.7-10.8,35.2-22.4
	c6.8-9.3,11.3-21.1,7.8-32.6C207.7,57,195.2,45.6,181,41.1c-2.3-0.7-4.6-1.3-7-1.8c-2.4-0.5-4.8-0.8-7.2-1.1
	c-2.4-0.2-4.8-0.4-7.2-0.4c-2.4,0-4.8,0.1-7.2,0.3s-4.8,0.5-7.1,0.9c-1.1,0.2-2.2,0.4-3.4,0.6c-0.8,0.2-2.2,0.6-2.2,0.6
	s-0.8,0.2-2.1,0.7l-0.3,0.1c0,0,1.1,1.4,1.6,2.1s1.4,2.2,1.4,2.2l1.4,2.2c0.1,0.2,0.3,0.5,0.4,0.7l1.2,2.4l0.6,1.2
	c0,0,0.3,0.8,0.6,0.9s0.5,0,0.7,0h0.8c1.6,0,3.1,0.1,4.7,0.1c10.7,0.2,22,1.6,31.9,6.2c5.4,2.5,10.8,8.9,13.3,14
	c3.2,6.5,0.9,13.6-2.8,19.4c-2.9,4.6-6.9,8.4-11.7,11c-5.5,3-11.6,4.3-17.7,5.7c-8.8,1.9-17.7,3.4-26.6,4.4
	c-2.6,0.3-5.2,0.5-7.9,0.6C127.9,114.3,126.7,114.3,125.4,114.3z"/>
<path class="st0" d="M160.9,157.4c12.5-1.3,24.8-3.8,35.9-9c10.3-4.8,19.4-11.9,26.5-20.7c3.4-4.4,6.6-8.9,9.5-13.7
	c3.1-4.8,5.7-9.9,7.8-15.1c3.2-8,5.1-16.5,5.7-25.1c0.3-3.7-0.1-7.5-1.3-11c-1.3-3.9-9.4-16.4-12-19.8c0,0-17.9-1-26.3-4.1
	c1.4,1.6,2.8,3.2,4,4.9c5.4,7.5,12.5,15.3,14.6,24.6c0.6,3,0.7,6.1,0.3,9.2c-0.7,5.9-2.4,11.7-4.8,17.1c-0.5,1.2-1.1,2.4-1.7,3.6
	c-6.5,13.6-16.7,25.5-27.9,36.5c-4.5,4.5-9.4,8.8-14.4,12.8c-2.3,1.9-4.8,3.6-7.4,5.1C166.7,154.4,160.9,157.4,160.9,157.4z"/>
<path class="st0" d="M302,42.4c-17.7-5.9-38.3,8.2-46,31.4s0.3,46.8,18,52.7c17.7,5.9,38.3-8.2,46-31.4S319.7,48.2,302,42.4z
	 M304.2,86.8c-4.6,13.7-14.6,22.6-22.4,20s-10.4-15.8-5.9-29.5s14.6-22.6,22.4-20S308.7,73.1,304.2,86.8L304.2,86.8z"/>
<path class="st1" d="M72.8,133.5c-0.3-0.1-2,1.1-2.4,1.2c-0.9,0.4-1.8,0.7-2.8,1c-1.9,0.6-3.8,0.9-5.8,1c-3.6,0.3-7.1-0.7-9.9-3
	c-5.7-4.2-9.5-10.6-11.5-17.3c-2.6-8.7-2.4-18-1.9-27c0.8-14,3.6-29.9,15.7-37.1c-13.7,7.1-30,6.8-43.4-0.7C5.1,48.4-0.1,43,0,36.6
	c0.2-8.4,6.5-15.7,13.1-20.1C27.8,6.6,46.5,4.1,63.7,2.1c5-0.6,9.9-1,14.9-1.3c32.8-2,65.8,0,98.2,6.1C214.9,14,254.1,26.5,293,17
	c2.7-0.7,5.3-1.4,7.9-2.3c1.4,4.6,3.8,8.8,6.9,12.4c-38.2,16-86.5,6.8-127.3-0.3s-77.1-12.1-118.3-7.8c-10.1,1.1-20.3,3.1-29.3,7.8
	c-3.8,2-8,5.6-7,9.9c1.2,5.4,8.3,6,12.8,6.1c5.3,0.1,10.6-0.7,15.6-2.5c5.2-1.7,10.6-3,16-4c4.9-1,9.9-1.4,14.8-1.2
	c3.5,0.2,7.8,0.4,10.6,2.7c1.6,1.4,2.1,4.2,0.2,5.6c-0.9,0.5-2,0.8-3,0.7c-10,0.6-20.1,3-27,10.9c-5.9,6.8-8.4,15.7-10.3,24.3
	c-2.2,9.7-4.2,19.1-2.4,29.1C55.3,119.4,62.3,130,72.8,133.5z"/>
<path class="st1" d="M302.1,7c1.4,0.1,9.9,13.1,12,16.1c22.3,31.7,23.7,75.7-6.4,103.4c38.7,5.7,46.1-47.8,39-74.4
	c-4.9-18.4-16.4-36.9-35.3-43.2C308.4,8,305.2,7.3,302.1,7z"/>
<path class="st1" d="M346.5,129.4c0.9,0.2,1.7,0.5,2.6,0.9c2.2,0.6,4.5,1,6.8,1.2c6.9,0.5,13.8-1.8,18.9-6.5
	c13.4-12.2,12.8-32.6,6.8-48.4c-1.8-4.6-8.9-17.6-8.9-17.6c-3.4,4.2-7.2,8-11.4,11.3c0,0,2.5,2.5,2.7,2.6
	c11.2,12.5,11.9,31.1,1.8,44.5c-1.5,2-3.2,3.8-5,5.4c-3.7,3.3-8.7,6.5-13.8,6.4C346.8,129.4,346.7,129.4,346.5,129.4z"/>
<path class="st1" d="M352.6,72.2c0,0,0.2-1,0.2-1.2c0.1-1.3,0.2-2.7,0.2-4c-0.1-6.2-2.5-18.3-2.5-18.3c0.4-0.4,0.9-0.8,1.4-1.1
	l1.4-1.1c0.9-0.8,1.8-1.6,2.7-2.4c3.3-3,6-6.6,8.1-10.5c0.9-1.7,2.2-4.4,1.9-6.4c0,0,12-0.4,15.8,2.7L352.6,72.2z"/>
<path class="st1" d="M327.3,8.7c0,0,7.3,4.2,11,11.5c0,0,81.2-2.5,117,31.3c0,0-14.7-32-61.3-45S327.3,8.7,327.3,8.7z"/>
</svg>
