<svg xmlns="http://www.w3.org/2000/svg" viewBox="0 0 155.5 155.5"><defs><style>.cls-1{fill:#ea2e49;}.cls-1,.cls-3{stroke:#333745;stroke-miterlimit:10;}.cls-2{fill:#daede2;}.cls-3{fill:none;}</style></defs><title>Asset 1</title><g id="Layer_2" data-name="Layer 2"><g id="Layer_2-2" data-name="Layer 2"><rect class="cls-1" x="0.5" y="0.5" width="154.5" height="154.5" rx="9" ry="9"/><path class="cls-2" d="M43.8,46.52c1.22,5.43,8.32,6,12.78,6.13a45.79,45.79,0,0,0,15.61-2.46,118.23,118.23,0,0,1,16-4A62.11,62.11,0,0,1,103.07,45c3.48.18,7.81.36,10.62,2.69,1.61,1.35,2.11,4.24.18,5.58a5.81,5.81,0,0,1-3,.72c-10,.61-20.1,3.05-27,10.94C78,71.69,75.5,80.62,73.59,89.21c-2.16,9.69-4.25,19.06-2.42,29.07,2,10.9,9,21.44,19.47,25a14.31,14.31,0,0,0-2.35,1.24,24.9,24.9,0,0,1-2.77,1,25.49,25.49,0,0,1-5.81,1,13.79,13.79,0,0,1-9.94-3c-5.66-4.21-9.49-10.61-11.48-17.3-2.59-8.7-2.41-18-1.88-27,.82-14,3.65-29.93,15.66-37.1a45.56,45.56,0,0,1-43.43-.72c-5.6-3.24-10.88-8.57-10.73-15C18.09,38,24.41,30.71,31,26.27c14.7-9.91,33.45-12.38,50.64-14.4,5-.59,9.92-1,14.89-1.31a393.66,393.66,0,0,1,58.48.7V30c-24.61-2.93-48.78-3.92-74.93-1.14C70,29.94,59.8,31.94,50.79,36.64,46.94,38.66,42.84,42.28,43.8,46.52Z"/><rect class="cls-3" x="0.5" y="0.5" width="154.5" height="154.5" rx="9" ry="9"/></g></g></svg>